
<!-- Created with Inkscape (http://www.inkscape.org/) -->
<!-- ClipArt by Arvin61r58 (http://openclipart.org/user-detail/Arvin61r58) -->

<svg
   xmlns:dc="http://purl.org/dc/elements/1.1/"
   xmlns:cc="http://creativecommons.org/ns#"
   xmlns:rdf="http://www.w3.org/1999/02/22-rdf-syntax-ns#"
   xmlns:svg="http://www.w3.org/2000/svg"
   xmlns="http://www.w3.org/2000/svg"
   xmlns:xlink="http://www.w3.org/1999/xlink"
   viewBox="0 0 220.13334 52.422797"
   id="svg2"
   height="185.75006"
   width="780"
   version="1.0">
  <metadata
     id="metadata317">
    <rdf:RDF>
      <cc:Work
         rdf:about="">
        <dc:format>image/svg+xml</dc:format>
        <dc:type
           rdf:resource="http://purl.org/dc/dcmitype/StillImage" />
        <dc:title></dc:title>
        <dc:subject>
          <rdf:Bag>
            <rdf:li>chrome</rdf:li>
            <rdf:li>business</rdf:li>
            <rdf:li>business graphic</rdf:li>
            <rdf:li>presentation</rdf:li>
            <rdf:li>presentation graphic</rdf:li>
            <rdf:li>typography</rdf:li>
            <rdf:li>metallic</rdf:li>
            <rdf:li>DTP</rdf:li>
            <rdf:li>desktop publishing</rdf:li>
            <rdf:li>office</rdf:li>
            <rdf:li>slide show</rdf:li>
            <rdf:li>slideshow</rdf:li>
            <rdf:li>summary</rdf:li>
          </rdf:Bag>
        </dc:subject>
        <dc:description>&quot;Summary&quot; business/presentation graphic</dc:description>
        <dc:creator>
          <cc:Agent>
            <dc:title>Arvin61r58</dc:title>
          </cc:Agent>
        </dc:creator>
        <dc:publisher>
          <cc:Agent>
            <dc:title>Openclipart.org</dc:title>
          </cc:Agent>
        </dc:publisher>
        <dc:identifier>https://openclipart.org/</dc:identifier>
        <dc:source>https://openclipart.org/user-detail/Arvin61r58</dc:source>
        <cc:license
           rdf:resource="http://creativecommons.org/publicdomain/zero/1.0/" />
      </cc:Work>
      <cc:License
         rdf:about="http://creativecommons.org/publicdomain/zero/1.0/">
        <cc:permits
           rdf:resource="http://creativecommons.org/ns#Reproduction" />
        <cc:permits
           rdf:resource="http://creativecommons.org/ns#Distribution" />
        <cc:permits
           rdf:resource="http://creativecommons.org/ns#DerivativeWorks" />
      </cc:License>
    </rdf:RDF>
  </metadata>
  <defs
     id="defs4">
    <linearGradient
       id="linearGradient5229">
      <stop
         stop-color="#edfafb"
         offset="0"
         id="stop5231" />
      <stop
         stop-color="#e8f6f8"
         offset="0.0625"
         id="stop5233" />
      <stop
         stop-color="#e1edee"
         offset="0.125"
         id="stop5235" />
      <stop
         stop-color="#dbe5e7"
         offset="0.1875"
         id="stop5237" />
      <stop
         stop-color="#d7dfe1"
         offset="0.25"
         id="stop5239" />
      <stop
         stop-color="#dae2e3"
         offset="0.3125"
         id="stop5241" />
      <stop
         stop-color="#e4eeef"
         offset="0.375"
         id="stop5243" />
      <stop
         stop-color="#eef9fa"
         offset="0.4375"
         id="stop5245" />
      <stop
         stop-color="#fafdfe"
         offset="0.5"
         id="stop5247" />
      <stop
         stop-color="#f9f9f8"
         offset="0.5625"
         id="stop5249" />
      <stop
         stop-color="#e4e3de"
         offset="0.625"
         id="stop5251" />
      <stop
         stop-color="#efefee"
         offset="0.6875"
         id="stop5253" />
      <stop
         stop-color="#dedcd6"
         offset="0.75"
         id="stop5255" />
      <stop
         stop-color="#ccc8bf"
         offset="0.8125"
         id="stop5257" />
      <stop
         stop-color="#c6c0b9"
         offset="0.875"
         id="stop5259" />
      <stop
         stop-color="#cbc8c2"
         offset="0.9375"
         id="stop5261" />
      <stop
         stop-color="#d2d3d0"
         offset="1"
         id="stop5263" />
    </linearGradient>
    <linearGradient
       gradientUnits="userSpaceOnUse"
       y2="22.225712"
       x2="64.98336"
       y1="1.5752941"
       x1="64.98336"
       id="linearGradient5302"
       xlink:href="#linearGradient5229" />
    <linearGradient
       y2="22.225712"
       x2="64.98336"
       y1="1.5752941"
       x1="64.98336"
       gradientUnits="userSpaceOnUse"
       id="linearGradient5340"
       xlink:href="#linearGradient5229" />
    <linearGradient
       y2="22.225712"
       x2="64.98336"
       y1="1.5752941"
       x1="64.98336"
       gradientUnits="userSpaceOnUse"
       id="linearGradient5342"
       xlink:href="#linearGradient5229" />
    <linearGradient
       y2="22.225712"
       x2="64.98336"
       y1="1.5752941"
       x1="64.98336"
       gradientUnits="userSpaceOnUse"
       id="linearGradient5344"
       xlink:href="#linearGradient5229" />
    <linearGradient
       y2="22.225712"
       x2="64.98336"
       y1="1.5752941"
       x1="64.98336"
       gradientUnits="userSpaceOnUse"
       id="linearGradient5346"
       xlink:href="#linearGradient5229" />
    <linearGradient
       y2="22.225712"
       x2="64.98336"
       y1="1.5752941"
       x1="64.98336"
       gradientUnits="userSpaceOnUse"
       id="linearGradient5348"
       xlink:href="#linearGradient5229" />
    <linearGradient
       y2="22.225712"
       x2="64.98336"
       y1="1.5752941"
       x1="64.98336"
       gradientUnits="userSpaceOnUse"
       id="linearGradient5350"
       xlink:href="#linearGradient5229" />
    <linearGradient
       y2="22.225712"
       x2="64.98336"
       y1="1.5752941"
       x1="64.98336"
       gradientUnits="userSpaceOnUse"
       id="linearGradient5352"
       xlink:href="#linearGradient5229" />
  </defs>
  <g
     transform="matrix(0.28222224,0,0,0.28222223,2.1166676,-103.6012)"
     id="g5874">
    <rect
       transform="translate(-1.3773622,-43.682621)"
       style="opacity:1;fill:#000000;fill-opacity:1;stroke:none;stroke-width:4;stroke-linecap:round;stroke-linejoin:round;stroke-miterlimit:4;stroke-dasharray:none;stroke-dashoffset:0;stroke-opacity:1"
       id="rect5290"
       width="750"
       height="155.75"
       x="8.8773594"
       y="425.77347" />
    <g
       transform="matrix(1.6666666,0,0,0.65456924,-237.57888,217.32221)"
       id="g4156">
      <rect
         style="opacity:1;fill:#0092f3;fill-opacity:1;stroke:none;stroke-width:4;stroke-linecap:round;stroke-linejoin:round;stroke-miterlimit:4;stroke-dasharray:none;stroke-dashoffset:0;stroke-opacity:1"
         id="rect4136"
         width="450"
         height="70"
         x="147.04733"
         y="416.46863" />
      <path
         style="fill:none;fill-rule:evenodd;stroke:#51b2f3;stroke-width:3.8296392;stroke-linecap:butt;stroke-linejoin:miter;stroke-opacity:1"
         d="m 147.04734,415.18852 450.00001,0"
         id="path4144" />
      <path
         id="path4146"
         d="m 147.04734,487.74872 450.00001,0"
         style="fill:none;fill-rule:evenodd;stroke:#0071c3;stroke-width:3.8296392;stroke-linecap:butt;stroke-linejoin:miter;stroke-opacity:1" />
    </g>
    <g
       id="g5274"
       transform="matrix(1.6666666,0,0,0.65456924,-237.57888,164.4484)">
      <rect
         y="416.46863"
         x="147.04733"
         height="70"
         width="450"
         id="rect5276"
         style="opacity:1;fill:#0092f3;fill-opacity:1;stroke:none;stroke-width:4;stroke-linecap:round;stroke-linejoin:round;stroke-miterlimit:4;stroke-dasharray:none;stroke-dashoffset:0;stroke-opacity:1" />
      <path
         id="path5278"
         d="m 147.04734,415.18852 450.00001,0"
         style="fill:none;fill-rule:evenodd;stroke:#51b2f3;stroke-width:3.8296392;stroke-linecap:butt;stroke-linejoin:miter;stroke-opacity:1" />
      <path
         style="fill:none;fill-rule:evenodd;stroke:#0071c3;stroke-width:3.8296392;stroke-linecap:butt;stroke-linejoin:miter;stroke-opacity:1"
         d="m 147.04734,487.74872 450.00001,0"
         id="path5280" />
    </g>
    <g
       transform="matrix(1.6666666,0,0,0.65456924,-237.57888,111.57459)"
       id="g5282">
      <rect
         style="opacity:1;fill:#0092f3;fill-opacity:1;stroke:none;stroke-width:4;stroke-linecap:round;stroke-linejoin:round;stroke-miterlimit:4;stroke-dasharray:none;stroke-dashoffset:0;stroke-opacity:1"
         id="rect5284"
         width="450"
         height="70"
         x="147.04733"
         y="416.46863" />
      <path
         style="fill:none;fill-rule:evenodd;stroke:#51b2f3;stroke-width:3.8296392;stroke-linecap:butt;stroke-linejoin:miter;stroke-opacity:1"
         d="m 147.04734,415.18852 450.00001,0"
         id="path5286" />
      <path
         id="path5288"
         d="m 147.04734,487.74872 450.00001,0"
         style="fill:none;fill-rule:evenodd;stroke:#0071c3;stroke-width:3.8296392;stroke-linecap:butt;stroke-linejoin:miter;stroke-opacity:1" />
    </g>
  </g>
  <g
     transform="matrix(1.1897136,0,0,1.1897136,12.720409,12.638151)"
     id="g5320">
    <path
       style="fill:#717171;fill-opacity:1;fill-rule:nonzero;stroke:none"
       d="m 18.019776,0.84666669 1.01589,0.46577691 0.846667,0.5501129 0.677443,0.5925564 0.508221,0.6774435 0.423334,0.7198874 0.25411,0.7617793 0.169223,0.7623308 0.08434,0.7617796 0.04244,0.7617796 -4.148446,0 2.116667,0.5082204 4.021667,0 -0.04244,-0.7198871 -0.08489,-0.7617796 -0.169223,-0.7617796 -0.25411,-0.7198871 -0.38089,-0.7198871 -0.50767,-0.635 L 21.914664,2.4975565 21.110441,1.9898872 20.136443,1.5241103 18.019776,0.84666669 Z M 13.828887,3.4715538 12.432108,3.5134458 11.331332,3.7251125 10.569002,4.1065534 10.061333,4.6142226 9.7647793,5.4184459 9.638,6.4348868 9.722336,7.1117793 9.9340027,7.6199997 10.273,8.0008894 10.780669,8.2974434 11.415668,8.5515535 12.177999,8.7207768 13.109,8.9324434 15.352998,9.3557768 14.506331,9.1441101 13.744,8.9748868 13.109,8.7207768 12.643775,8.4666664 12.304777,8.0857767 12.093111,7.577556 12.008771,6.942556 12.135551,5.9266663 12.432104,5.2067792 12.939773,4.6566663 13.65966,4.31822 14.717993,4.1065534 16.072329,4.0641104 17.003883,4.1065534 17.72377,4.233333 15.56466,3.6407766 14.760436,3.5134458 13.828883,3.4715538 Z m 2.751666,6.0534465 1.439223,0.3384462 1.524111,0.4657765 0.550113,0.211667 0.465776,0.296554 0.465778,0.338446 0.380889,0.423333 0.338998,0.423334 0.253559,0.50822 0.25411,0.550113 0.211667,0.550664 0.12733,0.592557 0.12678,0.592556 0.04244,0.592556 0.04244,0.635 -0.25411,1.989888 -0.719887,1.65089 -1.270001,1.312443 -1.735776,0.931003 -2.28589,0.50822 -2.836003,0.169223 2.243446,0 2.751667,-0.169223 2.201554,-0.50822 1.693333,-0.888559 1.227557,-1.27 0.677443,-1.608998 0.25356,-1.905 0,-0.635 -0.08434,-0.550113 -0.08489,-0.592556 -0.169223,-0.593108 -0.169223,-0.507669 -0.25411,-0.550664 -0.25411,-0.465226 -0.338446,-0.423333 -0.38089,-0.423334 L 22.592107,11.17589 22.126331,10.92178 21.61811,10.710113 20.136443,10.244887 18.739664,9.9483336 16.580553,9.5250003 Z m -7.6624404,5.5457767 0.084887,0.592557 0.084336,0.550113 0.1697742,0.50822 0.1692233,0.508221 0.2960026,0.465225 0.3389973,0.381441 0.423333,0.38089 0.507669,0.296003 0.593107,0.25411 0.676892,0.169223 0.804774,0.127331 0.888558,0.04244 2.243998,0.08434 -0.889111,-0.04244 -0.761779,-0.08434 -0.635,-0.211667 -0.593107,-0.211666 -0.465226,-0.296555 -0.423333,-0.380889 -0.338997,-0.38089 -0.25411,-0.423333 L 11.627335,16.89089 11.500555,16.383221 11.373776,15.875 11.331332,15.324888 8.9181126,15.070777 Z"
       id="path7" />
    <path
       style="fill:#717171;fill-opacity:1;fill-rule:nonzero;stroke:none"
       d="m 31.453446,0.67744359 0,14.64744441 0.04244,0.592556 0.08489,0.592556 0.126779,0.508221 0.169223,0.465226 0.254111,0.423333 0.338996,0.338998 0.38089,0.296002 0.50767,0.25411 0.550664,0.169223 0.635,0.127331 0.76178,0.08434 1.52411,0.127331 -0.719887,-0.08489 -0.635,-0.12678 -0.550113,-0.211666 -0.465777,-0.211667 -0.38089,-0.296554 -0.338446,-0.338446 -0.254111,-0.423333 -0.169223,-0.423334 -0.12733,-0.508221 -0.04244,-0.550112 -0.04189,-0.592557 0,-14.1816668 -1.65144,-0.67744361 z m 13.208221,0 0,14.60500041 -0.25411,2.370777 -0.76178,1.905 -1.312443,1.39678 -1.735777,0.931553 -2.15911,0.550113 -2.581894,0.169223 1.481667,0 2.54,-0.169223 2.074224,-0.550113 1.693333,-0.88911 1.227557,-1.354887 0.76178,-1.862557 0.211666,-2.285889 0,-14.1392238 -1.185113,-0.67744361 z"
       id="path123" />
    <path
       style="fill:#717171;fill-opacity:1;fill-rule:nonzero;stroke:none"
       d="M 55.21689,0.67744359 60.04278,17.441554 60.720224,17.610778 56.063557,1.3548872 55.21689,0.67744359 Z m 15.663334,0 0,21.46267041 0.338447,0 0,-20.7852268 -0.338447,-0.67744361 z m -17.653221,5.16433611 0,16.2983343 0.88911,0 0,-15.7901138 -0.88911,-0.5082205 z m 13.546667,0 -4.614223,16.2983343 0.635,0 4.445,-15.7901138 -0.465777,-0.5082205 z"
       id="path163" />
    <path
       style="fill:#717171;fill-opacity:1;fill-rule:nonzero;stroke:none"
       d="M 319.19922,2.4003906 318,4.8007812 302.55078,62.400391 l 0.75,-0.59961 15.89844,-59.4003904 z m -39.89844,18.2988284 0,57.75 0.14844,0 0,-55.949219 15.45117,55.949219 0.44922,0 -16.04883,-57.75 z m 47.84961,0 -1.5,1.800781 0,55.949219 1.5,0 0,-57.75 z"
       transform="scale(0.28222224,0.28222223)"
       id="path179" />
    <path
       style="fill:#717171;fill-opacity:1;fill-rule:nonzero;stroke:none"
       d="m 95.885,22.140333 0.550333,0 -4.106333,0 -0.423333,0 z"
       id="path191" />
    <path
       style="fill:#717171;fill-opacity:1;fill-rule:nonzero;stroke:none"
       d="m 374.25,2.4003906 -3,2.4003906 -25.19922,73.6484378 2.09961,0 L 374.25,2.4003906 Z M 382.5,17.25 379.34961,19.199219 389.25,51.75 392.69922,50.849609 382.5,17.25 Z m -13.94922,44.849609 -2.85156,0.59961 27,0 4.95117,15.75 3.90039,0 -5.25,-16.34961 -27.75,0 z"
       transform="scale(0.28222224,0.28222223)"
       id="path195" />
    <path
       style="fill:#717171;fill-opacity:1;fill-rule:nonzero;stroke:none"
       d="m 116.586,22.140333 1.22767,0 -4.48734,0 -1.10066,0 z"
       id="path205" />
    <path
       style="fill:#717171;fill-opacity:1;fill-rule:nonzero;stroke:none"
       d="m 430.05078,2.4003906 -4.65039,2.4003906 0,73.6484378 4.65039,0 0,-76.0488284 z m 15.29883,12.4492184 -5.25,1.951172 21,0 1.80078,0.148438 1.65039,0 1.5,0.300781 1.19922,0.300781 1.05078,0.449219 0.89844,0.599609 0.75,0.75 0.60156,0.900391 0.44922,1.050781 0.30078,1.5 0.29883,1.648438 0,1.800781 0,1.800781 -0.15039,1.648438 -0.29883,1.351562 -0.30078,1.34961 -0.59961,1.199218 -0.75,1.050782 -1.05078,0.90039 -1.19922,0.59961 -1.34961,0.599609 -1.80078,0.449219 6,-1.34961 1.80078,-0.449218 1.5,-0.59961 1.19922,-0.75 1.05078,-0.90039 0.75,-1.050782 0.59961,-1.199218 0.44922,-1.34961 0.15039,-1.5 0.15039,-1.65039 0.15039,-1.800782 L 477.75,22.650391 477.59961,20.849609 477.30078,19.5 476.84961,18.300781 476.25,17.400391 475.34961,16.5 l -0.90039,-0.599609 -1.04883,-0.451172 -1.34961,-0.298828 -1.5,-0.150391 -1.65039,-0.150391 -1.95117,0 -21.59961,0 z m 36.15039,27 -1.80078,0.300782 -6.29883,1.048828 1.79883,-0.148438 6.30078,-1.201172 z m -36.15039,6.300782 -5.25,0.90039 19.65039,0 3.44922,0.449219 2.55078,1.349609 1.65039,2.09961 L 468,54.75 l 0.44922,1.949219 0.30078,2.25 0.30078,2.550781 0.29883,2.400391 0.15039,2.548828 0.30078,2.40039 0.14844,2.400391 0.30078,2.25 0.44922,2.099609 0.45117,1.650391 0.75,1.199219 6.29883,0 -0.75,-1.199219 -0.59961,-1.800781 -0.29883,-2.09961 L 476.25,70.949219 475.94922,68.550781 475.65039,66 475.5,63.449219 475.19922,60.900391 475.05078,58.349609 474.59961,55.949219 474.15039,54 l -0.59961,-1.800781 -1.65039,-2.25 -2.70117,-1.34961 -3.59961,-0.449218 -20.25,0 z"
       transform="scale(0.28222224,0.28222223)"
       id="path213" />
    <path
       style="fill:#717171;fill-opacity:1;fill-rule:nonzero;stroke:none"
       d="m 137.45633,22.140333 1.905,0 -4.40266,0 -1.778,0 z"
       id="path297" />
    <path
       style="fill:#717171;fill-opacity:1;fill-rule:nonzero;stroke:none"
       d="m 496.80078,2.4003906 -6.90039,2.4003906 24,46.3496098 0,27.298828 7.65039,0 0,-28.199219 -24.75,-47.8496094 z m 49.04883,0 -8.40039,2.4003906 L 521.25,36 529.05078,34.5 545.84961,2.4003906 Z"
       transform="scale(0.28222224,0.28222223)"
       id="path305" />
    <g
       id="g5287"
       style="fill:url(#linearGradient5302);fill-opacity:1">
      <path
         id="path121"
         d="m 22.549552,18.034 -0.719667,1.651 -1.27,1.312333 -1.735666,0.931334 -2.286,0.508 L 13.701886,22.606 10.992555,22.394333 8.7488893,21.801667 7.0132227,20.701 l -1.27,-1.481667 -0.7620001,-1.862666 -0.254,-2.286 4.1910001,0 0.084667,0.592666 0.084667,0.550334 0.1693333,0.508 0.1693334,0.508 0.2963333,0.465666 0.3386663,0.381 0.423334,0.381 0.507999,0.296334 0.592666,0.254 0.677332,0.169333 0.804333,0.127 0.888999,0.04233 0.719666,-0.04233 0.635,-0.04233 0.592667,-0.04233 0.550333,-0.127 0.465667,-0.16934 0.423333,-0.211667 0.381,-0.296333 0.296333,-0.338667 0.254,-0.423333 0.169334,-0.508 0.08467,-0.592667 0.04233,-0.677333 -0.04233,-0.719667 -0.169333,-0.592666 -0.296333,-0.423334 -0.381,-0.338666 -0.508,-0.296334 -0.550338,-0.211666 -0.677333,-0.169334 -0.762,-0.169333 -0.846666,-0.08467 -0.973666,-0.169333 -1.015999,-0.169333 -1.100666,-0.254 -0.804332,-0.169334 -0.8043337,-0.254 -0.7196666,-0.211663 -0.7196667,-0.296334 -0.5926667,-0.338666 -0.5503333,-0.381 -0.4656667,-0.508 -0.381,-0.5503337 L 5.8702227,8.8899998 5.658556,8.0856663 5.4892226,7.1543333 5.4468893,6.0536663 5.4892226,5.2493338 5.6162227,4.5296668 5.8278893,3.8946663 6.1242227,3.3019998 6.4628893,2.7516663 6.8862227,2.2859998 l 0.4233333,-0.381 0.508,-0.3386665 0.5503333,-0.2963335 0.5503334,-0.254 0.5926666,-0.21166596 0.6349997,-0.16933346 0.592666,-0.169334 0.635,-0.08467 0.592666,-0.08467 0.635,-0.04233 0.592666,0 0.550333,-0.04233 1.650999,0.08467 1.439333,0.211667 1.185333,0.33866646 1.016,0.46566646 0.846667,0.5503335 0.677333,0.5926665 0.508,0.6773335 0.423334,0.7196665 0.254,0.7620005 0.169333,0.762 0.08467,0.7619995 0.04233,0.7620005 -4.148667,0 -0.04233,-0.254 -0.04234,-0.2963335 -0.04233,-0.338667 -0.08467,-0.4233325 -0.169334,-0.3810005 -0.211666,-0.338667 -0.254,-0.3809995 -0.423334,-0.296333 -0.465666,-0.2963335 -0.592667,-0.254 -0.804333,-0.1270005 -0.931333,-0.04233 -1.396999,0.04233 -1.100665,0.2116665 -0.762,0.381 -0.507999,0.5080005 -0.2963337,0.804333 -0.127,1.016 0.084667,0.6773335 0.2116667,0.5080005 0.338667,0.381 0.507999,0.2963325 0.635,0.254 0.761999,0.1693335 0.931332,0.211667 1.015999,0.169333 1.185333,0.1693335 1.27,0.254 1.439333,0.3386665 1.524,0.4656662 0.550334,0.211667 0.465666,0.296334 0.465667,0.338667 0.381,0.423332 0.338667,0.423334 0.254,0.508 0.254,0.550333 0.211666,0.550333 0.127,0.592667 0.127,0.592667 0.04233,0.592666 0.04233,0.635 z"
         style="fill:url(#linearGradient5340);fill-opacity:1;fill-rule:nonzero;stroke:none" />
      <path
         id="path161"
         d="m 44.407664,17.653 -0.762,1.905 -1.312333,1.397 -1.735667,0.931333 -2.159,0.550334 -2.582333,0.169333 -1.524,-0.04233 -1.312334,-0.169334 -1.185333,-0.254 -1.058333,-0.381 -0.889,-0.508 -0.762,-0.592666 -0.592667,-0.677337 -0.508,-0.804333 -0.381,-0.846667 -0.296333,-0.973666 -0.127,-1.016 -0.08467,-1.143 0,-14.52033362 4.318,0 0,14.64733362 0.04233,0.592666 0.08467,0.592667 0.127,0.508 0.169333,0.465667 0.254,0.423333 0.338667,0.338667 0.381,0.296333 0.508,0.254 0.550333,0.169333 0.635,0.127 0.762,0.08467 0.846667,0.04233 0.762,-0.04233 0.677333,-0.08467 0.550334,-0.127 0.508,-0.211666 0.423336,-0.211667 0.338667,-0.296333 0.296333,-0.338667 0.254,-0.423333 0.169333,-0.423334 0.127,-0.465666 0.04233,-0.550334 0.04233,-0.550333 0,-14.81666662 4.318,0 0,14.60499962 z"
         style="fill:url(#linearGradient5342);fill-opacity:1;fill-rule:nonzero;stroke:none" />
      <path
         id="path177"
         d="m 66.773776,5.8420003 -4.614333,16.2983327 -4.402667,0 -4.529667,-16.2983327 0,16.2983327 -4.148666,0 0,-21.46299962 6.138333,0 4.826,16.76399962 4.487333,-16.76399962 6.35,0 0,21.46299962 -4.106333,0 z"
         style="fill:url(#linearGradient5344);fill-opacity:1;fill-rule:nonzero;stroke:none" />
      <path
         id="path193"
         d="m 92.329,5.8420003 -4.614333,16.2983327 -4.360334,0 -4.529666,-16.2983327 0,16.2983327 -4.148667,0 0,-21.46299962 6.096,0 4.826,16.76399962 4.487333,-16.76399962 6.35,0 0,21.46299962 -4.106333,0 z"
         style="fill:url(#linearGradient5346);fill-opacity:1;fill-rule:nonzero;stroke:none" />
      <path
         id="path207"
         d="m 111.84467,17.526 -7.83167,0 0.97367,-3.175 5.842,0 L 107.95,4.8683333 104.98667,14.351 l -0.97367,3.175 -1.43933,4.614333 -4.318003,0 7.366003,-21.46299962 4.572,0 7.62,21.46299962 -4.48734,0 z"
         style="fill:url(#linearGradient5348);fill-opacity:1;fill-rule:nonzero;stroke:none" />
      <path
         id="path299"
         d="m 134.747,21.801667 -0.16933,-0.508 -0.0847,-0.592667 -0.0847,-0.677333 -0.0847,-0.677334 -0.0847,-0.719666 -0.0423,-0.719667 -0.0847,-0.719667 -0.0423,-0.719666 -0.127,-0.677334 -0.127,-0.550333 -0.16934,-0.508 -0.46566,-0.635 -0.762,-0.381 -1.016,-0.127 -5.715,0 0,8.551333 -4.318,0 0,-21.46299962 10.71033,0 0.80433,0 0.84667,0.08467 0.84667,0.127 0.80433,0.16933302 0.80433,0.2539994 0.71967,0.3810001 0.635,0.4656675 0.59267,0.6349994 0.46566,0.762 0.381,0.8890005 0.21167,1.058333 0.0847,1.27 -0.0423,0.846667 -0.127,0.7619995 -0.127,0.6350005 -0.254,0.5926665 -0.254,0.5080002 -0.33866,0.465666 -0.381,0.381 -0.381,0.296334 -0.46567,0.254 -0.508,0.169333 -0.508,0.127 -0.508,0.08467 -1.43933,-2.2860002 0.29633,-0.254 0.21167,-0.2963335 0.16933,-0.338667 0.127,-0.3809995 0.0423,-0.4233335 0.0423,-0.4656665 0.0423,-0.508 -0.0423,-0.5503335 -0.0423,-0.5080005 -0.0847,-0.3809995 -0.127,-0.3386665 -0.16934,-0.254 -0.254,-0.2540005 -0.254,-0.169333 -0.29633,-0.127 -0.381,-0.08467 -0.42333,-0.04233 -0.46557,-0.04234 -0.55033,0 -6.096,0 0,6.0113327 5.715,0 0.67733,-0.04233 0.59267,-0.04233 0.508,-0.1269997 0.42333,-0.169334 0.33867,-0.2116665 1.43933,2.2860002 0.762,0.169333 0.59267,0.254 0.46566,0.338667 0.381,0.380999 0.254,0.508 0.21167,0.635 0.16933,0.677334 0.0847,0.804332 0.0847,0.931335 0.0423,1.015999 0.127,1.185333 0.16933,1.27 0.127,0.719668 0.21167,0.719666 0.29633,0.635 -4.40266,0 z"
         style="fill:url(#linearGradient5350);fill-opacity:1;fill-rule:nonzero;stroke:none" />
      <path
         id="path313"
         d="m 151.511,22.140333 -4.318,0 0,-7.958666 -6.985,-13.50433362 4.86833,0 4.23334,9.05933292 4.74133,-9.05933292 4.86833,0 L 151.511,14.139333 Z"
         style="fill:url(#linearGradient5352);fill-opacity:1;fill-rule:nonzero;stroke:none" />
    </g>
  </g>
</svg>
