
<!-- Created with Inkscape (http://www.inkscape.org/) -->

<svg
   xmlns:dc="http://purl.org/dc/elements/1.1/"
   xmlns:cc="http://creativecommons.org/ns#"
   xmlns:rdf="http://www.w3.org/1999/02/22-rdf-syntax-ns#"
   xmlns:svg="http://www.w3.org/2000/svg"
   xmlns="http://www.w3.org/2000/svg"
   xmlns:sodipodi="http://sodipodi.sourceforge.net/DTD/sodipodi-0.dtd"
   xmlns:inkscape="http://www.inkscape.org/namespaces/inkscape"
   width="99.219666mm"
   height="93.462418mm"
   viewBox="0 0 99.219666 93.462418"
   version="1.1"
   id="svg2215"
   inkscape:version="0.92.3 (2405546, 2018-03-11)"
   sodipodi:docname="Office work.svg">
  <title
     id="title2232">Office work</title>
  <defs
     id="defs2209" />
  <sodipodi:namedview
     id="base"
     pagecolor="#ffffff"
     bordercolor="#666666"
     borderopacity="1.0"
     inkscape:pageopacity="0.0"
     inkscape:pageshadow="2"
     inkscape:zoom="0.35"
     inkscape:cx="225.71985"
     inkscape:cy="105.25207"
     inkscape:document-units="mm"
     inkscape:current-layer="layer1"
     showgrid="false"
     fit-margin-top="0"
     fit-margin-left="0"
     fit-margin-right="0"
     fit-margin-bottom="0"
     inkscape:window-width="1920"
     inkscape:window-height="986"
     inkscape:window-x="1589"
     inkscape:window-y="-11"
     inkscape:window-maximized="1" />
  <metadata
     id="metadata2212">
    <rdf:RDF>
      <cc:Work
         rdf:about="">
        <dc:format>image/svg+xml</dc:format>
        <dc:type
           rdf:resource="http://purl.org/dc/dcmitype/StillImage" />
        <dc:title>Office work</dc:title>
        <cc:license
           rdf:resource="http://creativecommons.org/publicdomain/zero/1.0/" />
      </cc:Work>
      <cc:License
         rdf:about="http://creativecommons.org/publicdomain/zero/1.0/">
        <cc:permits
           rdf:resource="http://creativecommons.org/ns#Reproduction" />
        <cc:permits
           rdf:resource="http://creativecommons.org/ns#Distribution" />
        <cc:permits
           rdf:resource="http://creativecommons.org/ns#DerivativeWorks" />
      </cc:License>
    </rdf:RDF>
  </metadata>
  <g
     inkscape:label="Layer 1"
     inkscape:groupmode="layer"
     id="layer1"
     transform="translate(-46.111622,-83.218857)">
    <path
       style="fill:#000000;stroke-width:0.99999994"
       d="m 66.917172,176.6306 c -0.03196,-0.041 -0.08869,-0.37283 -0.126052,-0.73733 -0.03736,-0.36449 -0.08298,-0.78185 -0.101361,-0.92745 l -0.03343,-0.26473 1.062057,-0.91665 c 2.886918,-2.49167 3.651006,-3.16571 3.608391,-3.18315 -0.06465,-0.0265 -3.525964,0.62546 -3.570094,0.6724 -0.01971,0.021 -0.08088,0.22623 -0.135914,0.45611 -0.116626,0.4872 -0.24264,0.67194 -0.521012,0.76381 -0.169032,0.0558 -0.235509,0.0496 -0.416448,-0.039 -0.262363,-0.12847 -0.358323,-0.30691 -0.35944,-0.6684 -8.71e-4,-0.2552 -0.01011,-0.27272 -0.130513,-0.24521 -0.132294,0.0302 -1.499373,0.28759 -6.151822,1.15811 -1.44215,0.26984 -2.665101,0.50347 -2.717671,0.51918 -0.06201,0.0185 -0.151231,0.20997 -0.254006,0.545 -0.145857,0.47549 -0.170269,0.51657 -0.307814,0.51807 -0.08217,8.8e-4 -0.823647,0.0376 -1.647731,0.0816 -0.824085,0.044 -1.508833,0.0695 -1.521667,0.0567 -0.02978,-0.0297 -0.0049,-1.60037 0.02584,-1.63112 0.01263,-0.0126 0.561837,-0.17241 1.220434,-0.35503 0.658596,-0.18262 2.520016,-0.69908 4.136492,-1.14768 1.616474,-0.4486 3.976354,-1.10232 5.244176,-1.45269 1.267823,-0.35038 2.309123,-0.64074 2.313997,-0.64526 0.0049,-0.004 0.07675,-0.82509 0.159712,-1.8235 0.08297,-0.99841 0.201106,-2.39877 0.262535,-3.11193 0.250625,-2.90959 0.931111,-10.92286 1.03993,-12.24601 0.03128,-0.38035 0.133936,-1.59919 0.228121,-2.70853 0.403382,-4.75114 0.4619,-5.45474 0.4619,-5.55377 0,-0.0772 -0.194397,-0.19662 -0.746481,-0.45841 -0.410564,-0.19468 -0.776864,-0.36085 -0.814001,-0.36927 -0.03713,-0.008 -0.09362,0.0625 -0.125522,0.15759 -0.618971,1.84492 -1.45309,3.70164 -2.159979,4.80806 -1.011377,1.583 -2.157981,2.19478 -3.236081,1.72664 l -0.253108,-0.10991 0.03836,-1.45473 c 0.190149,-7.21066 0.53388,-11.8329 0.993143,-13.35498 0.08083,-0.2679 0.09705,-0.647 0.104783,-2.44921 0.0098,-2.29084 0.04475,-2.65223 0.339665,-3.51532 0.147373,-0.43131 0.611133,-1.39112 0.803782,-1.66354 l 0.116828,-0.16521 -3.221493,0.0382 c -1.771821,0.021 -4.582959,0.0623 -6.246978,0.0919 -1.664017,0.0295 -3.679746,0.0575 -4.479394,0.0622 l -1.453909,0.008 -1.106331,-1.03182 c -0.608481,-0.5675 -1.115557,-1.0595 -1.126833,-1.09333 -0.01307,-0.0392 0.1841,-0.0752 0.543248,-0.0991 0.310062,-0.0207 1.21207,-0.0897 2.004459,-0.15345 2.946245,-0.23688 4.36036,-0.34935 5.791645,-0.46065 0.808237,-0.0629 1.58622,-0.12895 1.728849,-0.14688 l 0.259329,-0.0326 -0.0075,-0.87541 c -0.02405,-2.80881 0.548584,-4.68481 2.413273,-7.90607 0.778358,-1.34462 2.081352,-3.37579 3.290192,-5.12892 0.708017,-1.02681 0.902973,-1.56473 1.044282,-2.88142 0.177888,-1.65749 0.335759,-2.3714 0.613754,-2.77545 0.362532,-0.52692 0.843801,-0.76193 1.981783,-0.96772 1.426705,-0.25801 2.899088,-0.59295 3.976354,-0.90457 0.37603,-0.10877 2.174537,-0.68704 2.202469,-0.70815 0.0069,-0.005 -0.101531,-0.23691 -0.241016,-0.51484 -0.597122,-1.18977 -0.480732,-1.939173 0.332711,-2.142223 0.08905,-0.0222 0.148899,-0.0696 0.132993,-0.10534 -0.178141,-0.39991 -0.540118,-1.39115 -0.696915,-1.90844 -0.51708,-1.70589 -0.506558,-3.02977 0.03113,-3.91696 0.931819,-1.53749 2.305465,-2.6449 3.965026,-3.19653 0.900718,-0.29939 1.466212,-0.37183 2.341567,-0.29996 1.445771,0.11871 2.336298,0.4682 3.07909,1.2084 0.425302,0.42381 0.456778,0.47416 0.780453,1.24842 1.128084,2.69848 1.817822,5.33159 2.133951,8.146463 0.044,0.39183 0.09386,0.72627 0.110803,0.74321 0.08269,0.0827 3.094097,0.77613 7.294286,1.67966 1.96369,0.42243 2.420263,0.55054 2.725168,0.76467 0.567947,0.39887 0.633121,0.593 0.628846,1.87312 l -0.0031,0.93229 0.38842,0.40494 c 0.21362,0.22271 0.46206,0.5505 0.55208,0.72842 l 0.16368,0.3235 -0.0337,1.26355 -0.0337,1.26356 0.66477,1.36903 c 1.27249,2.62059 2.27969,4.89042 2.69881,6.08202 0.1202,0.34175 0.24656,0.63867 0.2808,0.65983 0.0342,0.0211 0.52457,0.21169 1.089647,0.42341 1.16488,0.43645 0.99421,0.45185 1.32833,-0.11983 0.20013,-0.34241 0.32295,-0.48058 0.58555,-0.65879 0.19885,-0.13494 0.26987,-0.148 0.80469,-0.148 0.74797,0 1.11079,0.10299 1.39991,0.39739 l 0.2161,0.22004 2.91023,-0.39243 c 1.60063,-0.21585 2.91271,-0.39367 2.91574,-0.39517 0.003,-0.002 0.0234,-0.67049 0.0453,-1.48665 0.0219,-0.81616 0.0523,-1.79512 0.0677,-2.17547 0.0153,-0.38035 0.0661,-2.01411 0.11289,-3.63058 0.0468,-1.61648 0.0974,-3.19837 0.11265,-3.51533 0.0152,-0.31696 0.0448,-1.27647 0.0657,-2.13225 0.027,-1.10316 0.0617,-1.62288 0.11909,-1.78592 0.0445,-0.12648 0.096,-0.37374 0.11436,-0.54948 0.0318,-0.30437 0.0261,-0.32283 -0.1203,-0.38954 -0.25136,-0.11453 -0.38198,-0.086 -1.22058,0.26657 -1.16522,0.4899 -1.8418,0.71003 -2.28719,0.74418 l -0.39163,0.03 -0.40662,-0.44129 c -0.50392,-0.54688 -0.94359,-0.88859 -1.57666,-1.22536 -0.4825,-0.25668 -0.48945,-0.26348 -0.48945,-0.47914 0,-0.12032 0.0372,-0.30774 0.0826,-0.41649 l 0.0826,-0.19773 -0.32939,0.0238 c -0.58257,0.0421 -0.90628,-0.18481 -0.97299,-0.682133 -0.0279,-0.20785 -0.0469,-0.23302 -0.15328,-0.20288 -0.0668,0.0189 -0.28252,0.0506 -0.47936,0.0703 -0.70452,0.0707 -0.79225,-0.12857 -0.75246,-1.70917 l 0.0268,-1.06612 -0.44859,-0.47532 c -1.00839,-1.06845 -1.723427,-2.49184 -1.975897,-3.93325 -0.0472,-0.26941 -0.10187,-0.6112 -0.12151,-0.75952 -0.0196,-0.14832 -0.0882,-0.33634 -0.15226,-0.41782 -0.11053,-0.14052 -0.13639,-0.14629 -0.50289,-0.11223 -0.36157,0.0336 -0.39825,0.0259 -0.5714,-0.11978 -0.10177,-0.0856 -0.24088,-0.23414 -0.30915,-0.33 -0.15217,-0.2137 -0.10679,-0.25306 0.35325,-0.30646 0.17846,-0.0207 0.34997,-0.0551 0.38114,-0.0765 0.0312,-0.0213 0.0888,-0.14876 0.12805,-0.28315 0.16711,-0.57211 0.58935,-1.09252 3.738227,-4.60745 l 0.88753,-0.9907 0.62727,-0.32086 c 0.95612,-0.48906 1.86144,-0.76108 2.98948,-0.89824 l 0.51953,-0.0632 0.99755,0.26047 c 2.65546,0.69337 4.22959,1.41535 5.05931,2.32047 1.06993,1.16717 1.42409,2.26984 2.10722,6.56082 0.11606,0.729 0.24644,1.41106 0.28972,1.51569 0.1254,0.3031 0.72431,1.16207 0.89499,1.28361 0.21197,0.15093 0.41239,0.1393 0.62076,-0.036 l 0.17465,-0.14695 1.02556,0.95738 1.02556,0.95738 0.949,0.31655 c 1.02922,0.34332 2.11982,0.83725 2.74672,1.24399 1.491,0.96739 3.19214,2.805813 4.70831,5.088273 0.83381,1.25523 1.44765,2.71407 1.79437,4.2645 0.085,0.38035 0.20351,0.899 0.26323,1.15256 0.18229,0.77404 0.53731,4.27779 0.835,8.24085 0.079,1.05151 0.14008,1.44823 0.46591,3.02549 0.43764,2.11857 0.41235,2.01833 0.50084,1.98542 0.11452,-0.0426 3.11555,-0.65407 4.09436,-0.83426 1.04812,-0.19294 2.09359,-0.32449 2.14783,-0.27025 0.0204,0.0204 -0.25066,1.19848 -0.60234,2.61798 -0.35169,1.41949 -0.65317,2.7365 -0.66997,2.92667 -0.36325,4.11203 -1.12305,9.05363 -1.86632,12.13807 -0.14454,0.5998 -0.19691,0.72222 -0.49967,1.16794 -0.18602,0.27385 -0.49529,0.63362 -0.68725,0.79949 -2.21077,1.91023 -3.51949,3.18322 -3.68855,3.58783 -0.0435,0.10404 -0.13327,0.20637 -0.19955,0.22741 -0.0663,0.021 -0.12052,0.0595 -0.12052,0.0856 0,0.0428 1.37023,2.53706 4.79767,8.73325 0.66624,1.20443 1.6842,3.04566 2.26213,4.09161 0.57794,1.04595 1.66721,3.01684 2.4206,4.37975 0.7534,1.36291 1.97898,3.58016 2.72353,4.92722 0.74453,1.34706 1.6841,3.04566 2.08793,3.77466 0.91556,1.65278 0.9797,1.77999 0.97943,1.94266 -6.5e-4,0.19146 -0.2068,0.50046 -0.37789,0.56551 -0.0917,0.0349 -5.16477,0.0877 -13.41296,0.13971 -7.29599,0.046 -15.22297,0.0974 -17.61552,0.11434 l -4.3501,0.0307 -0.40424,0.20092 c -0.22234,0.11052 -0.60087,0.23996 -0.84118,0.28766 -1.04084,0.20659 -4.10211,0.28948 -4.42996,0.11993 -0.17734,-0.0917 -0.37394,-0.36956 -0.4352,-0.61506 -0.0344,-0.13782 -0.12249,-0.18169 -0.90626,-0.45137 -1.00359,-0.34531 -1.82332,-0.68757 -2.700877,-1.12768 l -0.62056,-0.31122 -0.21045,0.28669 c -0.11575,0.15769 -0.22195,0.2867 -0.23599,0.2867 -0.014,0 -0.82223,-0.26306 -1.79598,-0.58458 -0.97374,-0.32151 -1.87417,-0.61601 -2.00095,-0.65445 l -0.23052,-0.0699 -0.0171,-0.35101 c -0.0132,-0.27195 -0.03919,-0.35727 -0.115262,-0.37883 -0.256909,-0.0728 -2.384493,-0.39085 -2.41445,-0.3609 -0.01878,0.0188 0.07348,0.55989 0.205014,1.20248 l 0.239144,1.16836 -4.36e-4,1.628 -4.35e-4,1.628 h -0.166471 c -0.09156,0 -1.420612,0.0761 -2.953452,0.16914 -1.532838,0.093 -2.981475,0.17731 -3.219193,0.18729 l -0.432211,0.0181 -0.02881,-0.21534 -0.02882,-0.21533 -0.302167,0.14047 c -0.460413,0.21403 -1.304288,0.46847 -1.945337,0.58655 -0.815863,0.15027 -3.231023,0.15035 -4.149239,0 -2.007455,-0.32841 -4.331621,-1.13447 -5.409554,-1.8761 -0.699782,-0.48146 -0.733344,-0.98162 -0.08332,-1.2417 0.248327,-0.0994 1.617513,-0.34335 2.950124,-0.5257 0.815997,-0.11167 0.80331,-0.0865 0.2124,-0.42172 -0.189798,-0.10768 -0.554667,-0.3615 -0.810823,-0.56405 l -0.465736,-0.36828 -1.567802,0.99229 c -0.862293,0.5459 -2.345786,1.48337 -3.296652,2.08341 -0.950869,0.60004 -1.752349,1.11286 -1.781069,1.1396 -0.02872,0.0267 -0.07261,0.31193 -0.09754,0.63374 -0.02493,0.3218 -0.05329,0.59201 -0.06304,0.60045 -0.0097,0.008 -0.406706,0.0711 -0.882139,0.13935 -0.475436,0.0682 -0.93161,0.13741 -1.013721,0.1538 -0.08665,0.0173 -0.173685,-0.002 -0.207419,-0.0448 z m 64.612288,-4.66327 c 6.59268,-0.0371 12.00625,-0.0844 12.03015,-0.10525 0.0239,-0.0208 -0.62137,-1.24231 -1.43395,-2.71444 -0.81257,-1.47213 -1.68143,-3.04614 -1.93079,-3.4978 -0.24935,-0.45166 -0.65709,-1.19074 -0.90609,-1.64241 -0.64454,-1.16918 -2.05562,-3.72591 -3.82463,-6.9298 -0.84002,-1.52139 -2.20015,-3.985 -3.02251,-5.47469 -0.82236,-1.48969 -1.98566,-3.59673 -2.5851,-4.6823 -0.79799,-1.44511 -1.11737,-1.97377 -1.19242,-1.97377 -0.0564,0 -0.10252,0.0146 -0.10252,0.0325 0,0.0482 0.2027,0.47839 0.94504,2.00578 0.36771,0.75656 0.66855,1.3819 0.66855,1.38965 0,0.008 0.28831,0.60758 0.64068,1.33296 0.35236,0.72539 0.77736,1.60415 0.94442,1.9528 0.72284,1.50851 2.18534,4.54752 2.95358,6.13741 0.23739,0.49128 0.58072,1.20444 0.76296,1.58478 0.41033,0.85639 1.57131,3.27104 2.14738,4.4662 1.42765,2.96191 2.75152,5.70761 3.02868,6.28148 0.38563,0.79845 0.41029,1.03053 0.13555,1.276 -0.0976,0.0872 -0.26285,0.17139 -0.36727,0.1871 -0.15588,0.0235 -12.35964,0.19288 -26.03614,0.36144 -1.53723,0.0189 -2.8987,0.0564 -3.02548,0.0832 -0.12928,0.0273 1.61711,0.0373 3.97635,0.0226 2.31378,-0.0143 9.60088,-0.0564 16.19356,-0.0935 z m -12.70705,-1.31915 c 2.39302,-0.0322 6.3737,-0.0844 8.84595,-0.11597 6.28593,-0.0804 11.62766,-0.1676 11.65026,-0.1902 0.0105,-0.0105 -0.0618,-0.18556 -0.1607,-0.38906 -0.31209,-0.64224 -1.6662,-3.45493 -1.98148,-4.11582 -0.16632,-0.34865 -0.50298,-1.04883 -0.74813,-1.55596 -0.24515,-0.50713 -0.58215,-1.20731 -0.74888,-1.55597 -0.65231,-1.36401 -1.92199,-4.00833 -2.77395,-5.77724 -0.5019,-1.04209 -1.05721,-2.19749 -1.43334,-2.98226 -0.16711,-0.34865 -0.51684,-1.07477 -0.77719,-1.61359 -0.26035,-0.53883 -0.53381,-1.10935 -0.60768,-1.26783 -0.26323,-0.56467 -2.88309,-5.99448 -2.92204,-6.0561 -0.0277,-0.0438 -1.30941,-0.0739 -4.23446,-0.0996 -2.30714,-0.0203 -5.32287,-0.0656 -6.70163,-0.10079 -1.37876,-0.0352 -3.25778,-0.0682 -4.1756,-0.0733 l -1.66877,-0.009 -0.76741,4.97672 -0.76741,4.97671 0.448,0.49711 c 0.2464,0.2734 0.66509,0.72383 0.93043,1.00094 l 0.48242,0.50385 -0.18576,0.46083 -0.18576,0.46083 0.56776,0.5395 c 1.84234,1.75063 3.53448,3.11033 5.56253,4.46971 0.82342,0.55193 1.05618,0.74357 1.62801,1.34043 0.73663,0.76888 1.19685,1.40635 1.3237,1.83353 0.15799,0.53199 -0.0521,0.97402 -0.82324,1.73184 -0.95456,0.9381 -2.43218,1.9091 -3.55028,2.33301 l -0.4034,0.15295 -0.62586,-0.30652 -0.62587,-0.30652 -0.15211,0.19811 c -0.0837,0.10897 -0.3142,0.40125 -0.5123,0.64953 -0.1981,0.24828 -0.36018,0.46333 -0.36018,0.47791 0,0.0146 0.47327,0.014 1.05172,-0.001 0.57844,-0.0152 3.00964,-0.0541 5.40265,-0.0862 z m -13.19701,-3.19745 c 0.0996,-0.66561 0.23023,-1.52139 0.29023,-1.90174 0.20529,-1.30133 0.56907,-3.68807 0.5841,-3.83228 0.008,-0.0792 -0.0326,-0.22187 -0.0907,-0.31696 -0.11373,-0.18591 -1.86788,-1.67213 -1.91636,-1.62365 -0.016,0.016 -0.11599,0.41385 -0.2221,0.88403 -0.10613,0.47019 -0.4292,1.89012 -0.71795,3.15542 -0.28875,1.26529 -0.51746,2.33297 -0.50825,2.37261 0.009,0.0397 0.53539,0.65566 1.16931,1.36893 0.88231,0.99275 1.16171,1.27421 1.19159,1.20033 0.0215,-0.0531 0.12054,-0.64109 0.22017,-1.30669 z m -10.777667,0.87883 c -0.002,-0.60098 -0.0988,-1.79964 -0.178891,-2.2115 -0.06384,-0.32848 -0.05981,-0.36721 0.05798,-0.55781 0.14151,-0.22897 0.62087,-0.5011 0.8827,-0.5011 0.0889,0 0.16157,-0.008 0.16157,-0.0186 0,-0.0102 0.24727,-0.74282 0.54949,-1.628 0.32535,-0.95293 0.63117,-1.97378 0.74973,-2.50266 l 0.20023,-0.89324 -0.23502,-1.55597 c -0.12926,-0.85578 -0.25351,-1.60379 -0.27612,-1.66224 -0.0304,-0.0785 -0.20898,0.23737 -0.68424,1.2102 -0.35373,0.72405 -1.06847,2.18681 -1.588324,3.25057 l -0.94518,1.9341 -0.420935,0.0541 -0.420938,0.0541 -0.620488,2.32908 c -0.581225,2.1817 -0.614883,2.33764 -0.531898,2.46429 0.04873,0.0744 0.14376,0.14815 0.211184,0.16396 0.178997,0.042 2.870734,0.47714 2.989599,0.48331 0.0874,0.005 0.10068,-0.0506 0.0995,-0.41257 z M 71.45194,167.8253 c 1.632321,-0.45116 2.987833,-0.83852 3.012247,-0.86081 0.02441,-0.0223 -0.03973,-0.20362 -0.142546,-0.40297 -0.354661,-0.68768 -0.286522,-1.30234 0.271466,-2.44883 l 0.250281,-0.51424 -0.190577,-0.379 c -0.369685,-0.73518 -0.513029,-1.28731 -0.517309,-1.99258 -0.003,-0.48948 0.02126,-0.70157 0.106373,-0.93086 l 0.110217,-0.29694 -1.147527,-3.23224 c -0.763865,-2.15157 -1.16134,-3.19871 -1.188841,-3.13194 -0.02272,0.0552 -0.823274,3.32892 -1.779006,7.27502 -0.955732,3.9461 -1.759889,7.26549 -1.787013,7.37643 -0.06162,0.252 -0.06544,0.41807 -0.0088,0.38472 0.02377,-0.014 1.378756,-0.39459 3.01108,-0.84576 z m 12.898293,-0.71533 c 0.882279,-0.71593 1.200183,-1.06619 1.835199,-2.022 0.530136,-0.79796 2.153969,-3.55087 2.149474,-3.64404 -0.0011,-0.0243 -0.58466,-0.38954 -1.296639,-0.81166 -0.723723,-0.42908 -1.294506,-0.80372 -1.294506,-0.84967 0,-0.0452 0.261895,-0.85385 0.581985,-1.79698 0.320093,-0.94313 0.790558,-2.33717 1.045482,-3.09787 l 0.463495,-1.38308 -0.959038,-4.30733 c -0.52747,-2.36903 -0.959039,-4.32349 -0.959039,-4.34325 0,-0.0197 -0.05835,-0.0186 -0.129663,0.003 -0.07131,0.0211 -0.583487,0.0474 -1.138159,0.0583 -0.972612,0.0192 -3.046376,0.11585 -3.899243,0.18179 l -0.412729,0.0319 -0.03557,0.32693 c -0.07497,0.68911 -0.07656,7.88284 -0.0022,9.89322 0.04104,1.10934 0.0826,2.29075 0.09234,2.62534 l 0.01771,0.60836 -0.501851,0.61017 -0.501851,0.61017 0.146654,0.32033 c 0.08066,0.17618 0.208281,0.57439 0.283605,0.88491 0.163986,0.67601 0.365375,1.23289 0.808547,2.2358 0.61718,1.39668 1.379518,2.85905 1.915284,3.67402 0.315142,0.47937 0.736998,0.92146 0.855871,0.89693 0.04881,-0.0101 0.469479,-0.32725 0.934812,-0.70485 z m 17.982887,-3.54915 c 0.16118,-0.71316 0.46216,-2.03573 0.66885,-2.93905 0.20668,-0.90332 0.37585,-1.68377 0.37592,-1.73432 0,-0.10048 -0.21228,-0.31997 -0.26177,-0.27048 -0.0591,0.0591 -0.64904,1.46217 -0.82626,1.96513 -0.23958,0.67994 -0.39101,1.46209 -0.46459,2.39954 -0.0927,1.18133 -0.0812,1.78661 0.0365,1.91667 0.0745,0.0823 0.10685,0.0901 0.13781,0.0333 0.0223,-0.0408 0.17235,-0.65769 0.33354,-1.37084 z m 5.34223,-0.20366 c -0.0548,-0.0837 -0.10945,-0.14233 -0.1214,-0.13038 -0.0274,0.0274 -0.25906,1.51 -0.2519,1.61241 0.003,0.0417 0.11053,-0.24041 0.23914,-0.62701 0.22765,-0.68431 0.23119,-0.70693 0.13416,-0.85502 z m -38.385107,-3.80151 c 0.52388,-2.1553 1.040093,-4.28179 1.147137,-4.72553 0.107046,-0.44373 0.340891,-1.40695 0.519652,-2.14048 l 0.325024,-1.33368 -0.123137,-0.32911 c -0.08752,-0.23393 -0.29904,-0.53992 -0.731277,-1.0579 -0.334475,-0.40082 -0.669794,-0.80334 -0.745156,-0.89449 -0.07536,-0.0911 -0.146162,-0.15597 -0.157335,-0.14407 -0.01117,0.0119 -0.08929,0.83853 -0.173597,1.83694 -0.08431,0.99841 -0.202808,2.39878 -0.263339,3.11193 -0.06053,0.71315 -0.215261,2.54141 -0.343842,4.06279 -0.128581,1.52139 -0.284954,3.36262 -0.347495,4.09161 -0.111396,1.29846 -0.128727,1.6141 -0.08227,1.49834 0.01272,-0.0317 0.451755,-1.82106 0.975635,-3.97635 z m 28.52829,-2.95899 -0.15756,-0.15294 0.0404,0.39903 c 0.0588,0.58069 0.098,0.63039 0.19244,0.24375 l 0.0823,-0.3369 z m -0.30188,-1.39203 c 0.0166,-0.0634 0.007,-0.1008 -0.0221,-0.083 -0.0287,0.0178 -0.0523,0.0697 -0.0523,0.11533 0,0.11928 0.0392,0.10227 0.0743,-0.0323 z m 10.932087,-6.07971 c 0.34957,-2.28208 0.65036,-4.22055 0.66843,-4.30772 l 0.0328,-0.15847 h -0.53827 -0.53827 l -0.53533,2.57886 c -0.29444,1.41838 -0.6241,3.00676 -0.73259,3.52974 -0.10849,0.52297 -0.211,1.00756 -0.22779,1.07686 -0.0238,0.0981 0.10638,0.28842 0.58902,0.86103 0.34075,0.40427 0.62558,0.69766 0.63296,0.65198 0.007,-0.0457 0.29943,-1.9502 0.649,-4.23228 z m -19.451108,0.97968 c 0.182292,-0.53882 0.616476,-1.81942 0.964858,-2.84577 0.710049,-2.09183 0.693478,-1.93186 0.24565,-2.37137 l -0.247173,-0.24259 -1.368926,0.0644 c -0.752912,0.0354 -1.379201,0.0747 -1.391757,0.0873 -0.01255,0.0125 0.29475,1.45225 0.682906,3.19932 0.388153,1.74707 0.723122,3.15666 0.744371,3.13243 0.02126,-0.0242 0.187781,-0.48491 0.370071,-1.02374 z M 108.6837,132.38182 c 0.0614,-0.0328 0.1799,-0.19459 0.26346,-0.35948 0.14453,-0.28522 0.15016,-0.32919 0.11604,-0.90557 -0.0514,-0.86821 -0.21034,-2.87626 -0.24574,-3.10472 l -0.03,-0.19379 -0.50042,0.0361 c -0.27523,0.0199 -0.69652,0.051 -0.93619,0.0692 l -0.43576,0.033 -0.18114,-0.39403 c -0.21531,-0.46837 -0.35889,-0.99216 -0.3601,-1.31378 -6.6e-4,-0.12805 -0.02,-0.26282 -0.0433,-0.29949 -0.0316,-0.0497 -0.37191,-0.0538 -1.33897,-0.0159 -0.7131,0.0279 -1.9708,0.0771 -2.79489,0.10929 -2.19436,0.0857 -2.17389,0.0828 -2.302367,0.3214 -0.15825,0.29384 -0.48895,0.42805 -1.22628,0.49769 -0.34132,0.0322 -0.77408,0.0431 -0.96169,0.0241 -0.1876,-0.019 -0.33023,-0.0244 -0.31695,-0.012 0.0133,0.0124 0.28347,0.21514 0.60043,0.45054 1.00843,0.74896 1.37696,1.28471 1.55846,2.26562 0.0527,0.28466 0.10526,0.54999 0.11686,0.5896 0.013,0.0446 0.12616,0.0722 0.29664,0.0724 0.151547,2.2e-4 0.612667,0.0504 1.024707,0.1116 0.41204,0.0612 1.57902,0.23078 2.59327,0.37691 2.55094,0.36753 2.57253,0.37366 3.68105,1.04528 1.06468,0.64504 1.21425,0.70769 1.42293,0.59601 z"
       id="path2228"
       inkscape:connector-curvature="0" />
  </g>
</svg>
